<?xml version="1.0" encoding="iso-8859-1"?>
<!-- Generator: Adobe Illustrator 19.0.0, SVG Export Plug-In . SVG Version: 6.00 Build 0)  -->
<svg version="1.1" id="Layer_1" xmlns="http://www.w3.org/2000/svg" xmlns:xlink="http://www.w3.org/1999/xlink" x="0px" y="0px"
	 viewBox="0 0 512 512" style="enable-background:new 0 0 512 512;" xml:space="preserve">
<path style="fill:#CFDCE5;" d="M203.865,256.662V52.99c0-12.021-9.746-21.767-21.767-21.767H66.049
	c-12.021,0-21.767,9.746-21.767,21.767v155.315c0,30.845,12.802,60.307,35.351,81.354l0,0
	c22.548,21.047,35.351,50.509,35.351,81.354v132.093h222.203V463.85c0-31.713,18.213-60.728,46.948-74.145
	c37.895-17.693,64.154-56.142,64.154-100.724v-32.32H203.865V256.662z"/>
<path style="fill:#BAC6CC;" d="M118.765,289.658L118.765,289.658c-22.548-21.047-35.351-50.509-35.351-81.354V52.99
	c0-12.021,9.746-21.767,21.767-21.767H66.049c-12.021,0-21.767,9.746-21.767,21.767v155.315c0,30.845,12.802,60.307,35.351,81.354
	l0,0c22.548,21.047,35.351,50.509,35.351,81.354v132.093h39.132V371.013C154.116,340.167,141.315,310.705,118.765,289.658z"/>
<path style="fill:#8DE0A8;" d="M449.199,215.332H203.865v41.33h245.334c10.91,0,19.754-8.844,19.754-19.754v-1.82
	C468.954,224.176,460.11,215.332,449.199,215.332z"/>
<g>
	<path style="fill:#7BC690;" d="M449.199,215.332h-23.026c10.91,0,19.754,8.844,19.754,19.756v1.82
		c0,10.91-8.844,19.754-19.754,19.754h23.026c10.91,0,19.754-8.844,19.754-19.754v-1.82
		C468.954,224.176,460.11,215.332,449.199,215.332z"/>
	<rect x="203.865" y="215.332" style="fill:#7BC690;" width="52.653" height="41.33"/>
</g>
<rect x="65.627" y="367.125" style="fill:#415E72;" width="49.356" height="85.379"/>
<path d="M282.016,494.212H123.26c0,0-0.051-128.063-0.128-128.535c-1.405-31.265-15.09-61.089-38.047-82.518
	c-20.671-19.294-32.526-46.578-32.526-74.853v-74.195c0-4.912-3.981-8.894-8.894-8.894s-8.894,3.982-8.894,8.894v74.195
	c0,33.188,13.914,65.21,38.176,87.856c17.533,16.365,28.718,38.478,31.712,62.069H65.011c-4.913,0-8.894,3.982-8.894,8.894v85.379
	c0,4.912,3.981,8.894,8.894,8.894h40.461v41.709c0,4.912,3.981,8.894,8.894,8.894h167.65c4.913,0,8.894-3.982,8.894-8.894
	C290.91,498.194,286.929,494.212,282.016,494.212z M73.905,443.608v-67.59h31.567v67.59H73.905z"/>
<path d="M448.581,206.438H212.141V52.99c0-16.906-13.755-30.66-30.66-30.66h-49.131V8.894c0-4.912-3.981-8.894-8.894-8.894
	s-8.894,3.982-8.894,8.894v13.435H65.432c-16.907,0-30.661,13.754-30.661,30.661v47.324c0,4.912,3.981,8.894,8.894,8.894
	s8.894-3.982,8.894-8.894V76.532h90.715c4.913,0,8.894-3.982,8.894-8.894s-3.981-8.894-8.894-8.894H52.559V52.99
	c0-7.097,5.775-12.873,12.873-12.873h116.049c7.097,0,12.872,5.774,12.872,12.872v5.754H172.92c-4.913,0-8.894,3.982-8.894,8.894
	c0,4.912,3.981,8.894,8.894,8.894h21.432v180.13c0,4.912,3.981,8.894,8.894,8.894h235.529v14.532h-98.063
	c-4.913,0-8.894,3.982-8.894,8.894c0,4.912,3.981,8.894,8.894,8.894h97.656c-3.179,36.035-25.467,68.295-58.614,83.772
	c-31.637,14.771-52.079,47.038-52.079,82.203l-0.001,30.361h-16.012c-4.913,0-8.894,3.982-8.894,8.894
	c0,4.912,3.981,8.894,8.894,8.894h24.906c4.912,0,8.894-3.982,8.894-8.894l0.001-39.255c0-28.286,16.414-54.226,41.816-66.086
	c42.089-19.651,69.285-62.351,69.285-108.783v-24.565c11.923-3.466,20.665-14.482,20.665-27.509v-1.82
	C477.231,219.289,464.379,206.438,448.581,206.438z M459.442,236.907c0,5.989-4.872,10.86-10.86,10.86h-0.911h-235.53v-23.541
	h236.439c5.989,0,10.86,4.872,10.86,10.86v1.82H459.442z"/>
<path d="M309.289,297.876c4.913,0,8.894-3.982,8.894-8.894c0-4.912-3.981-8.894-8.894-8.894h-57.512
	c-4.913,0-8.894,3.982-8.894,8.894c0,4.912,3.981,8.894,8.894,8.894H309.289z"/>
<g>
</g>
<g>
</g>
<g>
</g>
<g>
</g>
<g>
</g>
<g>
</g>
<g>
</g>
<g>
</g>
<g>
</g>
<g>
</g>
<g>
</g>
<g>
</g>
<g>
</g>
<g>
</g>
<g>
</g>
</svg>
