<?xml version="1.0" encoding="iso-8859-1"?>
<!-- Generator: Adobe Illustrator 18.0.0, SVG Export Plug-In . SVG Version: 6.00 Build 0)  -->
<!DOCTYPE svg PUBLIC "-//W3C//DTD SVG 1.1//EN" "http://www.w3.org/Graphics/SVG/1.1/DTD/svg11.dtd">
<svg version="1.1" id="Capa_1" xmlns="http://www.w3.org/2000/svg" xmlns:xlink="http://www.w3.org/1999/xlink" x="0px" y="0px"
	 viewBox="0 0 512 512" style="enable-background:new 0 0 512 512;" xml:space="preserve">
<g>
	<g>
		<path style="fill:#B1C3D0;" d="M129.75,66.219l-13.313-8.875c-2.687-1.791-6.188-1.791-8.875,0L94.25,66.219
			C85.347,72.154,80,82.145,80,92.845v326.311c0,10.699,5.347,20.691,14.25,26.626l13.313,8.875
			c1.344,0.898,2.891,1.344,4.438,1.344s3.094-0.445,4.438-1.344l13.313-8.875c8.902-5.935,14.25-15.926,14.25-26.626V92.845
			C144,82.145,138.653,72.154,129.75,66.219z"/>
	</g>
	<g>
		<path style="fill:#B1C3D0;" d="M225.75,66.219l-13.313-8.875c-2.687-1.791-6.188-1.791-8.875,0l-13.313,8.875
			C181.347,72.154,176,82.145,176,92.845v326.311c0,10.699,5.347,20.691,14.25,26.626l13.313,8.875
			c1.344,0.898,2.891,1.344,4.438,1.344s3.094-0.445,4.438-1.344l13.313-8.875c8.902-5.935,14.25-15.926,14.25-26.626V92.845
			C240,82.145,234.653,72.154,225.75,66.219z"/>
	</g>
	<g>
		<path style="fill:#B1C3D0;" d="M321.75,66.219l-13.313-8.875c-2.687-1.791-6.188-1.791-8.875,0l-13.313,8.875
			C277.347,72.154,272,82.145,272,92.845v326.311c0,10.699,5.347,20.691,14.25,26.626l13.313,8.875
			c1.344,0.898,2.891,1.344,4.438,1.344s3.094-0.445,4.438-1.344l13.313-8.875c8.902-5.935,14.25-15.926,14.25-26.626V92.845
			C336,82.145,330.653,72.154,321.75,66.219z"/>
	</g>
	<g>
		<path style="fill:#B1C3D0;" d="M417.75,66.219l-13.313-8.875c-2.687-1.791-6.188-1.791-8.875,0l-13.313,8.875
			C373.347,72.154,368,82.145,368,92.845v326.311c0,10.699,5.347,20.691,14.25,26.626l13.313,8.875
			c1.344,0.898,2.891,1.344,4.438,1.344s3.094-0.445,4.438-1.344l13.313-8.875c8.902-5.935,14.25-15.926,14.25-26.626V92.845
			C432,82.145,426.653,72.154,417.75,66.219z"/>
	</g>
	<g>
		<path style="fill:#8EADBE;" d="M416,112v295.142c0,8.064-2.037,16.127-6.596,22.778c-0.497,0.725-1.002,1.396-1.506,1.98
			c-4.255,4.929-11.461,6.047-17.105,2.799l-8.543-4.918c-8.902-5.935-14.25-15.926-14.25-26.625v16
			c0,10.699,5.347,20.69,14.249,26.625l13.313,8.876c1.344,0.898,2.891,1.344,4.438,1.344s3.094-0.445,4.438-1.344l13.313-8.876
			c8.902-5.935,14.249-15.926,14.249-26.625V408v-4.845V96C423.164,96,416,103.163,416,112z"/>
	</g>
	<g>
		<path style="fill:#8EADBE;" d="M320,112v295.142c0,8.064-2.037,16.127-6.596,22.778c-0.497,0.725-1.002,1.396-1.506,1.98
			c-4.255,4.929-11.461,6.047-17.105,2.799l-8.543-4.918c-8.902-5.935-14.25-15.926-14.25-26.625v16
			c0,10.699,5.347,20.69,14.249,26.625l13.313,8.876c1.344,0.898,2.891,1.344,4.438,1.344s3.094-0.445,4.438-1.344l13.313-8.876
			c8.902-5.935,14.249-15.926,14.249-26.625V408v-4.845V96C327.164,96,320,103.163,320,112z"/>
	</g>
	<g>
		<path style="fill:#8EADBE;" d="M224,112v295.142c0,8.064-2.037,16.127-6.596,22.778c-0.497,0.725-1.002,1.396-1.506,1.98
			c-4.255,4.929-11.461,6.047-17.105,2.799l-8.543-4.918c-8.902-5.935-14.25-15.926-14.25-26.625v16
			c0,10.699,5.347,20.69,14.249,26.625l13.313,8.876c1.344,0.898,2.891,1.344,4.438,1.344s3.094-0.445,4.438-1.344l13.313-8.876
			c8.902-5.935,14.249-15.926,14.249-26.625V408v-4.845V96C231.164,96,224,103.163,224,112z"/>
	</g>
	<g>
		<path style="fill:#8EADBE;" d="M128,112v295.142c0,8.064-2.037,16.127-6.596,22.778c-0.497,0.725-1.002,1.396-1.506,1.98
			c-4.255,4.929-11.461,6.047-17.105,2.799l-8.543-4.918C85.347,423.846,80,413.854,80,403.155v16
			c0,10.699,5.347,20.69,14.249,26.625l13.313,8.876c1.344,0.898,2.891,1.344,4.438,1.344s3.094-0.445,4.438-1.344l13.313-8.876
			c8.902-5.935,14.249-15.926,14.249-26.625V408v-4.845V96C135.164,96,128,103.163,128,112z"/>
	</g>
	<g>
		<path style="fill:#7B9BB1;" d="M144,328v8v48v8c0-4.418,3.582-8,8-8v-48C147.582,336,144,332.418,144,328z"/>
	</g>
	<g>
		<path style="fill:#7B9BB1;" d="M144,120v8v48v8c0-4.418,3.582-8,8-8v-48C147.582,128,144,124.418,144,120z"/>
	</g>
	<g>
		<path style="fill:#7B9BB1;" d="M240,328v8v48v8c0-4.418,3.582-8,8-8v-48C243.582,336,240,332.418,240,328z"/>
	</g>
	<g>
		<path style="fill:#7B9BB1;" d="M240,120v8v48v8c0-4.418,3.582-8,8-8v-48C243.582,128,240,124.418,240,120z"/>
	</g>
	<g>
		<path style="fill:#7B9BB1;" d="M336,328v8v48v8c0-4.418,3.582-8,8-8v-48C339.582,336,336,332.418,336,328z"/>
	</g>
	<g>
		<path style="fill:#7B9BB1;" d="M336,120v8v48v8c0-4.418,3.582-8,8-8v-48C339.582,128,336,124.418,336,120z"/>
	</g>
	<g>
		<circle style="fill:#E2E4E6;" cx="480" cy="152" r="32"/>
	</g>
	<path style="fill:#8EADBE;" d="M448,152c0-5.859,1.689-11.277,4.438-16H440v32h12.438C449.689,163.277,448,157.858,448,152z"/>
	<path style="fill:#D0D7DA;" d="M498.244,125.756C501.853,130.936,504,137.208,504,144c0,17.673-14.327,32-32,32
		c-6.792,0-13.065-2.148-18.246-5.757C459.536,178.543,469.118,184,480,184c17.673,0,32-14.327,32-32
		C512,141.119,506.543,131.537,498.244,125.756z"/>
	<g>
		<circle style="fill:#7B9BB1;" cx="480" cy="152" r="16"/>
	</g>
	<g>
		<path style="fill:#7B9BB1;" d="M80,168H56c-30.875,0-56-25.125-56-56V56h32v56c0,13.234,10.766,24,24,24h24V168z"/>
	</g>
	<g>
		<path style="fill:#8EADBE;" d="M32,456H0v-56c0-30.875,25.125-56,56-56h24v32H56c-13.234,0-24,10.766-24,24V456z"/>
	</g>
	<rect x="432" y="136" style="fill:#7B9BB1;" width="8" height="32"/>
	<path style="fill:#7B9BB1;" d="M16,400v56h16v-56c0-13.234,10.766-24,24-24h24v-16H56C33.909,360,16,377.909,16,400z"/>
	<path style="fill:#8EADBE;" d="M16,112V56h16v56c0,13.234,10.766,24,24,24h24v16H56C33.909,152,16,134.091,16,112z"/>
	<path style="fill:#8EADBE;" d="M360,128h-16v48h16c4.418,0,8,3.582,8,8v-8v-48v-8C368,124.418,364.418,128,360,128z"/>
	<path style="fill:#8EADBE;" d="M360,336h-16v48h16c4.418,0,8,3.582,8,8v-8v-48v-8C368,332.418,364.418,336,360,336z"/>
	<path style="fill:#8EADBE;" d="M264,128h-16v48h16c4.418,0,8,3.582,8,8v-8v-48v-8C272,124.418,268.418,128,264,128z"/>
	<path style="fill:#8EADBE;" d="M264,336h-16v48h16c4.418,0,8,3.582,8,8v-8v-48v-8C272,332.418,268.418,336,264,336z"/>
	<path style="fill:#8EADBE;" d="M168,128h-16v48h16c4.418,0,8,3.582,8,8v-8v-48v-8C176,124.418,172.418,128,168,128z"/>
	<path style="fill:#8EADBE;" d="M168,336h-16v48h16c4.418,0,8,3.582,8,8v-8v-48v-8C176,332.418,172.418,336,168,336z"/>
</g>
<g>
</g>
<g>
</g>
<g>
</g>
<g>
</g>
<g>
</g>
<g>
</g>
<g>
</g>
<g>
</g>
<g>
</g>
<g>
</g>
<g>
</g>
<g>
</g>
<g>
</g>
<g>
</g>
<g>
</g>
</svg>
