<?xml version="1.0" encoding="iso-8859-1"?>
<!-- Generator: Adobe Illustrator 19.0.0, SVG Export Plug-In . SVG Version: 6.00 Build 0)  -->
<svg version="1.1" id="Layer_1" xmlns="http://www.w3.org/2000/svg" xmlns:xlink="http://www.w3.org/1999/xlink" x="0px" y="0px"
	 viewBox="0 0 512 512" style="enable-background:new 0 0 512 512;" xml:space="preserve">
<path style="fill:#A9D0D3;" d="M12.8,384V51.2h486.4V384H12.8z"/>
<path style="fill:#573A32;" d="M486.4,38.4H25.6C11.46,38.4,0,49.86,0,64v307.2c0,14.14,11.46,25.6,25.6,25.6h56.235
	c-2.065,24.457,1.237,48.478,16.316,71.1c2.475,3.703,6.528,5.7,10.65,5.7c2.449,0,4.924-0.7,7.1-2.15
	c5.871-3.925,7.475-11.861,3.55-17.749c-11.503-17.246-13.909-36.454-11.921-56.9h127.906c-2.065,24.457,1.237,48.478,16.316,71.1
	c2.475,3.703,6.528,5.7,10.65,5.7c2.449,0,4.924-0.7,7.1-2.15c5.871-3.925,7.475-11.861,3.55-17.749
	c-11.503-17.246-13.909-36.454-11.921-56.9h127.906c-2.065,24.457,1.237,48.478,16.316,71.1c2.475,3.703,6.528,5.7,10.65,5.7
	c2.449,0,4.924-0.7,7.1-2.15c5.871-3.925,7.475-11.861,3.55-17.749c-11.503-17.246-13.909-36.454-11.921-56.9H486.4
	c14.14,0,25.6-11.46,25.6-25.6V64C512,49.86,500.54,38.4,486.4,38.4z M486.4,371.2h-67.337c2.594-11.392,5.845-23.031,9.233-34.884
	c12.442-43.486,24.781-88.286,3.465-129.152l10.513,5.257c6.349,3.166,14.029,0.614,17.178-5.726
	c3.149-6.323,0.597-14.012-5.726-17.178l-51.2-25.6c-3.977-1.988-8.704-1.766-12.45,0.563c-3.772,2.33-6.076,6.443-6.076,10.88
	v58.871c0,7.074,5.726,12.8,12.8,12.8s12.8-5.726,12.8-12.8v-14.336c15.915,31.889,5.47,69.589-5.897,109.389
	c-3.977,13.892-7.842,27.913-10.769,41.916H265.463c2.594-11.392,5.845-23.031,9.233-34.884
	c12.442-43.486,24.781-88.286,3.465-129.152l10.513,5.257c6.349,3.166,14.029,0.614,17.178-5.726
	c3.149-6.323,0.597-14.012-5.726-17.178l-51.2-25.6c-3.977-1.988-8.704-1.766-12.45,0.563c-3.772,2.33-6.076,6.443-6.076,10.88
	v58.871c0,7.074,5.726,12.8,12.8,12.8s12.8-5.726,12.8-12.8v-14.336c15.915,31.889,5.47,69.589-5.897,109.389
	c-3.977,13.892-7.842,27.913-10.769,41.916H111.863c2.594-11.392,5.845-23.031,9.233-34.884
	c12.442-43.486,24.781-88.286,3.465-129.152l10.513,5.257c6.349,3.166,14.029,0.614,17.178-5.726
	c3.149-6.323,0.597-14.012-5.726-17.178l-51.2-25.6c-3.977-1.988-8.704-1.766-12.45,0.563c-3.772,2.33-6.076,6.443-6.076,10.88
	v58.871c0,7.074,5.726,12.8,12.8,12.8c7.074,0,12.8-5.726,12.8-12.8v-14.336c15.915,31.889,5.47,69.589-5.897,109.389
	c-3.977,13.892-7.842,27.913-10.769,41.916H25.6V64h460.8V371.2z"/>
<g>
</g>
<g>
</g>
<g>
</g>
<g>
</g>
<g>
</g>
<g>
</g>
<g>
</g>
<g>
</g>
<g>
</g>
<g>
</g>
<g>
</g>
<g>
</g>
<g>
</g>
<g>
</g>
<g>
</g>
</svg>
